<svg viewBox="-7 0 512 512" xmlns="http://www.w3.org/2000/svg"><path d="m39.515625 254.28125-39.515625 39.515625 82.421875 82.425781 63.101563-15.933594zm0 0" fill="#f92814"/><path d="m458.675781 254.28125-106.007812 106.007812 63.097656 15.933594 82.425781-82.425781zm0 0" fill="#db0404"/><path d="m405.855469 367.378906-90.730469-22.128906v-29.996094h-132.058594v29.996094l-90.734375 22.125c-32.003906 7.804688-54.527343 36.480469-54.527343 69.421875v75.203125h422.578124v-75.199219c0-32.945312-22.519531-61.617187-54.527343-69.421875zm0 0" fill="#474747"/><path d="m405.855469 367.378906-90.730469-22.128906v-29.996094h-66.03125v196.746094h211.289062v-75.199219c0-32.945312-22.519531-61.617187-54.527343-69.421875zm0 0" fill="#383838"/><path d="m416.253906 167.15625c0 92.320312-74.839844 167.160156-167.160156 167.160156-92.316406 0-167.15625-74.839844-167.15625-167.160156 0-92.316406 74.839844-167.15625 167.15625-167.15625 92.320312 0 167.160156 74.839844 167.160156 167.15625zm0 0" fill="#595959"/><path d="m416.253906 167.15625c0 92.320312-74.839844 167.160156-167.160156 167.160156 0-87.753906 0-263.707031 0-334.316406 92.320312 0 167.160156 74.839844 167.160156 167.15625zm0 0" fill="#474747"/><path d="m134.480469 165.824219c0-28.050781 22.738281-50.789063 50.789062-50.789063h124.980469c28.050781 0 50.789062 22.738282 50.789062 50.789063s-22.738281 50.789062-50.789062 50.789062h-124.980469c-28.050781 0-50.789062-22.738281-50.789062-50.789062zm0 0" fill="#ffe4c2"/><path d="m247.761719 115.035156h62.488281c28.050781 0 50.789062 22.738282 50.789062 50.789063s-22.738281 50.789062-50.789062 50.789062h-62.488281zm0 0" fill="#f2d1a5"/><path d="m176.164062 166.488281 15-25.976562 42.710938 24.660156-15 25.976563zm0 0" fill="#383838"/><path d="m264.304688 165.160156 42.710937-24.660156 15 25.980469-42.710937 24.660156zm0 0" fill="#2c2c2c"/></svg>