<svg viewBox="0 0 512 512.00001" xmlns="http://www.w3.org/2000/svg"><path d="m26.292969 0h69.449219v69.449219h-69.449219zm0 0" fill="#ff9500"/><path d="m26.292969 442.550781h69.449219v69.449219h-69.449219zm0 0" fill="#fe6a16"/><path d="m61.019531 77.082031h450.980469v357.835938h-450.980469zm0 0" fill="#ffe4c2"/><path d="m61.019531 256h450.980469v178.917969h-450.980469zm0 0" fill="#f2d1a5"/><path d="m0 49.195312h122.035156v413.609376h-122.035156zm0 0" fill="#e3a76f"/><path d="m0 256h122.035156v206.804688h-122.035156zm0 0" fill="#d6995c"/><path d="m444.578125 273.269531c-16.875-8.402343-30.875-21.285156-40.628906-37.105469h42.910156v-30h-51.652344v-35.167968h-30v35.167968h-51.648437v30h42.90625c-9.75 15.824219-23.753906 28.703126-40.628906 37.105469l-8.964844 4.460938 13.371094 26.855469 8.964843-4.460938c13.566407-6.757812 25.710938-15.738281 36-26.472656v15.65625h-11.054687v30h11.054687v21.695312h30v-21.695312h11.058594v-30h-11.058594v-15.65625c10.289063 10.734375 22.433594 19.71875 36.003907 26.472656l8.960937 4.460938 13.371094-26.855469zm0 0" fill="#595959"/><path d="m262.863281 186.292969h-52.945312v-15.296875h-30v170.007812h30v-15.296875h52.945312v15.296875h30v-170.007812h-30zm0 30v24.707031h-52.945312v-24.707031zm-52.945312 79.414062v-24.707031h52.945312v24.707031zm0 0" fill="#595959"/><g fill="#474747"><path d="m420.011719 256h-79.609375c-7.210938 6.894531-15.464844 12.738281-24.566406 17.269531l-8.964844 4.460938 13.371094 26.855469 8.964843-4.460938c13.566407-6.757812 25.710938-15.738281 36-26.472656v15.65625h-11.054687v30h11.054687v21.695312h30v-21.695312h11.058594v-30h-11.058594v-15.65625c10.289063 10.734375 22.433594 19.71875 36.003907 26.472656l8.960937 4.460938 13.371094-26.855469-8.964844-4.460938c-9.097656-4.53125-17.351563-10.375-24.566406-17.269531zm0 0"/><path d="m179.917969 341.003906h30v-15.296875h52.945312v15.296875h30v-85.003906h-112.945312zm30-70.003906h52.945312v24.707031h-52.945312zm0 0"/></g></svg>