<svg viewBox="-34 0 511 512" xmlns="http://www.w3.org/2000/svg"><path d="m359.445312 304.9375c-1.0625.070312-2.132812.117188-3.21875.121094-27.089843 0-49.054687-21.964844-49.054687-49.058594s21.960937-49.058594 49.054687-49.058594c1.085938 0 2.15625.050782 3.21875.121094 8.714844.566406 16.816407 3.390625 23.703126 7.921875l60.753906-86.984375-105.707032 9.125c.480469 8.230469-1.121093 16.65625-4.988281 24.484375-.472656.957031-.964843 1.910156-1.507812 2.851563-13.546875 23.460937-43.546875 31.5-67.011719 17.953124-23.464844-13.546874-31.503906-43.546874-17.957031-67.011718.542969-.9375 1.121093-1.839844 1.714843-2.726563 4.84375-7.265625 11.34375-12.867187 18.707032-16.566406l-44.949219-96.109375-44.949219 96.109375c7.363282 3.699219 13.859375 9.296875 18.707032 16.5625.59375.890625 1.171874 1.792969 1.714843 2.730469 13.546875 23.460937 5.503907 53.464844-17.957031 67.011718-23.464844 13.546876-53.464844 5.507813-67.015625-17.957031-.539063-.9375-1.03125-1.890625-1.503906-2.847656-3.867188-7.828125-5.46875-16.257813-4.992188-24.484375l-105.707031-9.125 60.757812 86.980469c6.886719-4.527344 14.984376-7.351563 23.699219-7.917969 1.066407-.070312 2.136719-.121094 3.21875-.121094 27.09375 0 49.058594 21.964844 49.058594 49.058594s-21.964844 49.054688-49.058594 49.054688c-1.082031 0-2.152343-.046876-3.21875-.117188-8.714843-.566406-16.8125-3.390625-23.699219-7.921875l-60.757812 86.984375 105.707031-9.125c-.480469-8.230469 1.125-16.65625 4.992188-24.484375.472656-.957031.964843-1.910156 1.503906-2.851563 13.546875-23.460937 43.550781-31.5 67.015625-17.953124 23.460938 13.546874 31.5 43.546874 17.953125 67.011718-.539063.9375-1.121094 1.839844-1.710937 2.726563-4.847657 7.265625-11.34375 12.867187-18.710938 16.566406l44.953125 96.109375 44.949219-96.109375c-7.363282-3.699219-13.863282-9.296875-18.707032-16.5625-.59375-.890625-1.171874-1.792969-1.714843-2.730469-13.546875-23.460937-5.507813-53.464844 17.957031-67.011718 23.464844-13.546876 53.464844-5.507813 67.011719 17.957031.542969.9375 1.035156 1.890625 1.507812 2.847656 3.867188 7.828125 5.46875 16.257813 4.988281 24.484375l105.707032 9.125-60.753906-86.980469c-6.886719 4.527344-14.988282 7.351563-23.703126 7.917969zm0 0" fill="#549cff"/><path d="m359.445312 304.9375c-1.0625.070312-2.132812.117188-3.21875.121094-27.089843 0-49.054687-21.964844-49.054687-49.058594s21.960937-49.058594 49.054687-49.058594c1.085938 0 2.15625.050782 3.21875.121094 8.714844.566406 16.816407 3.390625 23.703126 7.921875l60.753906-86.984375-105.707032 9.125c.480469 8.230469-1.121093 16.65625-4.988281 24.484375-.472656.957031-.964843 1.910156-1.507812 2.851563-13.546875 23.460937-43.546875 31.5-67.011719 17.953124-23.464844-13.546874-31.503906-43.546874-17.957031-67.011718.542969-.9375 1.121093-1.839844 1.714843-2.726563 4.84375-7.265625 11.34375-12.867187 18.707032-16.566406l-44.949219-96.109375v512l44.949219-96.109375c-7.363282-3.699219-13.863282-9.296875-18.707032-16.5625-.59375-.890625-1.171874-1.792969-1.714843-2.730469-13.546875-23.460937-5.507813-53.464844 17.957031-67.011718 23.460938-13.546876 53.464844-5.507813 67.011719 17.957031.542969.9375 1.035156 1.890625 1.507812 2.847656 3.867188 7.828125 5.46875 16.257813 4.988281 24.484375l105.707032 9.125-60.753906-86.980469c-6.886719 4.527344-14.984376 7.351563-23.703126 7.917969zm0 0" fill="#3389ff"/><path d="m260.652344 256c0 21.234375-17.214844 38.449219-38.449219 38.449219-21.238281 0-38.449219-17.214844-38.449219-38.449219s17.210938-38.449219 38.449219-38.449219c21.234375 0 38.449219 17.214844 38.449219 38.449219zm0 0" fill="#d9d9d9"/><path d="m260.652344 256c0 21.234375-17.214844 38.449219-38.449219 38.449219 0-52.324219 0-41.902344 0-76.898438 21.234375 0 38.449219 17.214844 38.449219 38.449219zm0 0" fill="#cfcfcf"/></svg>