<svg viewBox="0 -20 511.99657 511" xmlns="http://www.w3.org/2000/svg"><path d="m359.027344 375.183594 56.148437-56.148438 96.820313 96.820313-56.148438 56.148437zm0 0" fill="#383838"/><path d="m359.027344 375.183594 28.074218-28.074219 96.820313 96.820313-28.074219 28.074218zm0 0" fill="#2c2c2c"/><path d="m342.835938 350.351562-232.515626-205.160156 5.039063-144.691406 274.988281 302.339844zm0 0" fill="#c1c1c1"/><path d="m366.351562 326.832031-23.515624 23.519531-232.515626-205.160156 2.503907-71.886718zm0 0" fill="#adadad"/><path d="m301.441406 376.625 115.175782-115.175781 56.148437 56.148437-115.175781 115.175782zm0 0" fill="#f92814"/><path d="m301.4375 376.625 57.351562-57.351562 56.148438 56.148437-57.347656 57.351563zm0 0" fill="#db0404"/><path d="m0 415.855469 96.820312-96.820313 56.148438 56.148438-96.820312 96.820312zm0 0" fill="#474747"/><path d="m28.074219 443.929688 96.820312-96.820313 28.074219 28.074219-96.820312 96.820312zm0 0" fill="#383838"/><path d="m169.167969 350.351562 232.515625-205.160156-5.039063-144.691406-274.984375 302.339844zm0 0" fill="#e4e4e4"/><path d="m145.652344 326.832031 23.515625 23.519531 232.515625-205.160156-2.503906-71.886718zm0 0" fill="#d9d9d9"/><path d="m39.230469 317.59375 56.152343-56.148438 115.175782 115.179688-56.148438 56.148438zm0 0" fill="#ff9500"/><path d="m97.058594 375.421875 56.148437-56.148437 57.351563 57.351562-56.148438 56.148438zm0 0" fill="#fe6a16"/></svg>