<svg viewBox="0 0 512 512" xmlns="http://www.w3.org/2000/svg"><path d="m169.765625 206.535156 28.914063-8 22.9375 82.921875-28.914063 8zm0 0" fill="#595959"/><path d="m290.382812 281.46875 22.9375-82.921875 28.914063 7.996094-22.9375 82.921875zm0 0" fill="#474747"/><path d="m369.007812 374.539062c0 62.414063-50.597656 113.007813-113.007812 113.007813-62.414062 0-113.007812-50.59375-113.007812-113.007813 0-62.410156 50.59375-113.007812 113.007812-113.007812 62.410156 0 113.007812 50.597656 113.007812 113.007812zm0 0" fill="#ff9500"/><path d="m369.007812 374.539062c0 62.414063-50.597656 113.007813-113.007812 113.007813 0-97.023437 0-179.742187 0-226.015625 62.410156 0 113.007812 50.597656 113.007812 113.007812zm0 0" fill="#fe6a16"/><path d="m295.242188 374.539062c0 21.671876-17.570313 39.242188-39.242188 39.242188s-39.242188-17.570312-39.242188-39.242188c0-21.671874 17.570313-39.238281 39.242188-39.238281s39.242188 17.566407 39.242188 39.238281zm0 0" fill="#f92814"/><path d="m295.242188 374.539062c0 21.671876-17.570313 39.242188-39.242188 39.242188 0-39.242188 0-49.472656 0-78.480469 21.671875-.003906 39.242188 17.566407 39.242188 39.238281zm0 0" fill="#db0404"/><path d="m47.046875 0h63.898437v497h-63.898437zm0 0" fill="#595959"/><path d="m15 482h127.992188v30h-127.992188zm0 0" fill="#383838"/><path d="m464.953125 497h-63.898437v-497h63.898437zm0 0" fill="#474747"/><path d="m369.007812 482h127.992188v30h-127.992188zm0 0" fill="#2c2c2c"/><path d="m485.699219 49.785156v61.265625h-459.398438v-61.265625zm0 0" fill="#f92814"/><path d="m485.699219 49.785156v61.265625h-229.699219v-61.265625zm0 0" fill="#db0404"/><path d="m512 147.742188v61.265624h-512v-61.265624zm0 0" fill="#f92814"/><path d="m512 147.742188v61.265624h-256v-61.265624zm0 0" fill="#db0404"/></svg>