<svg viewBox="-55 0 512 512" xmlns="http://www.w3.org/2000/svg"><path d="m162.394531 0h76.714844v88.035156h-76.714844zm0 0" fill="#d6995c"/><path d="m200.75 0h38.355469v88.035156h-38.355469zm0 0" fill="#c48958"/><path d="m63.273438 374.738281-55.019532 109.359375 55.464844 27.902344 46.9375-93.300781zm0 0" fill="#d6995c"/><path d="m338.226562 374.738281 55.019532 109.359375-55.464844 27.902344-46.9375-93.300781zm0 0" fill="#c48958"/><path d="m401.5 266.417969c0 110.871093-89.878906 200.75-200.75 200.75s-200.75-89.878907-200.75-200.75c0-110.871094 89.878906-200.75 200.75-200.75s200.75 89.878906 200.75 200.75zm0 0" fill="#549cff"/><path d="m401.5 266.417969c0 110.871093-89.878906 200.75-200.75 200.75 0-152.570313 0-339.167969 0-401.503907 110.871094.003907 200.75 89.882813 200.75 200.753907zm0 0" fill="#3389ff"/><path d="m200.75 400.660156c-74.019531 0-134.242188-60.222656-134.242188-134.242187 0-74.023438 60.222657-134.242188 134.242188-134.242188s134.242188 60.21875 134.242188 134.242188c0 74.019531-60.222657 134.242187-134.242188 134.242187zm0 0" fill="#2864f0"/><path d="m200.75 400.660156c0-121.660156 0-222.726562 0-268.484375 74.019531 0 134.242188 60.21875 134.242188 134.242188 0 74.019531-60.222657 134.242187-134.242188 134.242187zm0 0" fill="#0053bf"/><path d="m200.75 334.152344c-37.347656 0-67.734375-30.386719-67.734375-67.734375 0-37.347657 30.386719-67.734375 67.734375-67.734375s67.734375 30.386718 67.734375 67.734375c0 37.347656-30.386719 67.734375-67.734375 67.734375zm0 0" fill="#27488f"/><path d="m200.75 334.152344c0-77.417969 0-92.363282 0-135.46875 37.347656 0 67.734375 30.386718 67.734375 67.734375 0 37.347656-30.386719 67.734375-67.734375 67.734375zm0 0" fill="#1b3b6b"/></svg>